<?xml version="1.0" encoding="UTF-8"?>
<svg xmlns="http://www.w3.org/2000/svg" xmlns:xlink="http://www.w3.org/1999/xlink" width="4713" height="3361" viewBox="0 0 4713 3361">

<path fill-rule="evenodd" fill="rgb(97.65625%, 70.896912%, 10.984802%)" fill-opacity="1" d="M 2356.46875 285.171875 C 3127.328125 285.171875 3752.238281 910.070312 3752.238281 1680.929688 C 3752.238281 2451.792969 3127.328125 3076.699219 2356.46875 3076.699219 C 1585.609375 3076.699219 960.707031 2451.792969 960.707031 1680.929688 C 960.707031 910.070312 1585.609375 285.171875 2356.46875 285.171875 "/>
<path fill-rule="evenodd" fill="rgb(99.609375%, 67.771912%, 34.910583%)" fill-opacity="1" d="M 3716 1998.160156 C 3704.960938 2045.679688 3691.441406 2092.238281 3675.679688 2137.761719 C 3646.089844 2183.851562 3611.230469 2212.421875 3611.230469 2212.421875 C 3611.230469 2212.421875 3625.398438 2215.671875 3641.480469 2226.691406 C 3429.011719 2726.335938 2933.671875 3076.699219 2356.46875 3076.699219 C 1972.820312 3076.699219 1625.359375 2921.875 1373.050781 2671.34375 C 1382.578125 2664.21875 1392.289062 2657.238281 1402.128906 2650.511719 C 1504.019531 2580.894531 1505.710938 2580.894531 1505.710938 2580.894531 C 1505.710938 2580.894531 1439.488281 2545.238281 1431 2495.992188 C 1422.511719 2446.75 1449.679688 2412.785156 1449.679688 2412.785156 C 1449.679688 2412.785156 1252.710938 2382.226562 1257.800781 2210.71875 C 1262.898438 2039.21875 1380.058594 2023.941406 1380.058594 2023.941406 C 1380.058594 2023.941406 1310.441406 1894.898438 1376.660156 1803.210938 C 1442.878906 1711.511719 1512.5 1699.628906 1512.5 1699.628906 C 1512.5 1699.628906 1386.851562 1631.710938 1414.011719 1507.761719 C 1441.179688 1383.800781 1605.890625 1348.140625 1605.890625 1348.140625 C 1605.890625 1348.140625 1544.761719 893.070312 1819.839844 692.710938 C 2094.910156 492.339844 2358.109375 578.941406 2358.109375 578.941406 C 2358.109375 578.941406 2770.71875 429.511719 3023.71875 716.46875 C 3276.730469 1003.441406 3198.621094 1533.21875 3198.621094 1533.21875 C 3198.621094 1533.21875 3448.230469 1478.878906 3494.070312 1619.820312 C 3539.921875 1760.761719 3448.230469 1835.46875 3448.230469 1835.46875 C 3448.230469 1835.46875 3597.648438 1753.960938 3689.339844 1913.570312 C 3706.070312 1942.691406 3714.058594 1971.121094 3716 1998.160156 "/>
<path fill-rule="evenodd" fill="rgb(99.21875%, 99.609375%, 100%)" fill-opacity="1" d="M 2071.121094 2261.671875 C 2071.121094 2261.671875 1936.980469 2531.660156 2033.761719 2645.429688 C 2130.550781 2759.195312 2325.820312 2606.375 2325.820312 2606.375 C 2325.820312 2606.375 2424.300781 2745.613281 2609.390625 2684.488281 C 2794.46875 2623.355469 2867.488281 2339.789062 2867.488281 2339.789062 C 2867.488281 2339.789062 2532.980469 2136.019531 2369.96875 2142.820312 C 2206.960938 2149.609375 2071.121094 2261.671875 2071.121094 2261.671875 "/>
<path fill-rule="evenodd" fill="rgb(82.8125%, 45.872498%, 45.483398%)" fill-opacity="1" d="M 1381.261719 1796.980469 C 1446.070312 1710.988281 1512.5 1699.628906 1512.5 1699.628906 C 1512.5 1699.628906 1386.851562 1631.710938 1414.011719 1507.761719 C 1441.179688 1383.800781 1605.890625 1348.140625 1605.890625 1348.140625 C 1605.890625 1348.140625 1544.761719 893.070312 1819.839844 692.710938 C 2094.910156 492.339844 2358.109375 578.941406 2358.109375 578.941406 C 2358.109375 578.941406 2400.871094 563.46875 2467.25 552.050781 C 2736.828125 672.789062 3005.761719 879.878906 3184.351562 1069.511719 C 3232.011719 1306.601562 3198.621094 1533.21875 3198.621094 1533.21875 C 3198.621094 1533.21875 3281.359375 1515.21875 3360.308594 1526.828125 C 3298.011719 1887.820312 2884.46875 2242.988281 2884.46875 2242.988281 C 2884.46875 2242.988281 2731.648438 2485.8125 2453.171875 2512.980469 C 2174.699219 2540.148438 2071.121094 2220.921875 2071.121094 2220.921875 C 2071.121094 2220.921875 1777.371094 2224.320312 1546.441406 2217.519531 C 1445.910156 2214.570312 1387.878906 2041.679688 1381.261719 1796.980469 "/>
<path fill-rule="evenodd" fill="rgb(69.726562%, 38.035583%, 39.598083%)" fill-opacity="1" d="M 2062.628906 2203.941406 L 2283.378906 2112.238281 C 2283.378906 2112.238281 2485.429688 2136.019531 2648.441406 1978.109375 C 2811.449219 1820.191406 2818.238281 1813.398438 2818.238281 1813.398438 C 2818.238281 1813.398438 2767.308594 2147.910156 2604.300781 2256.578125 C 2441.289062 2365.257812 2150.820312 2301.601562 2150.820312 2301.601562 L 2062.628906 2203.941406 "/>
<path fill-rule="evenodd" fill="rgb(16.479492%, 14.501953%, 19.604492%)" fill-opacity="1" d="M 3716 1998.160156 C 3704.960938 2045.679688 3691.441406 2092.238281 3675.679688 2137.761719 C 3646.089844 2183.851562 3611.230469 2212.421875 3611.230469 2212.421875 C 3611.230469 2212.421875 3625.398438 2215.671875 3641.480469 2226.691406 C 3592.621094 2341.578125 3528.769531 2448.554688 3452.441406 2545.210938 C 3436.640625 2526.335938 3417.289062 2504.230469 3393.878906 2479.019531 C 3305.578125 2383.929688 3044.089844 2366.949219 2904.851562 2377.136719 C 2765.609375 2387.324219 2667.128906 2299.019531 2660.339844 2102.058594 C 2653.550781 1905.089844 2830.140625 1686.050781 2830.140625 1686.050781 C 2830.140625 1686.050781 3055.980469 1609.628906 3054.28125 1472.089844 C 3052.578125 1334.558594 2906.550781 1348.140625 2906.550781 1348.140625 C 2906.550781 1348.140625 2881.078125 1517.941406 2881.078125 1528.128906 C 2881.078125 1538.320312 2787.691406 1509.449219 2787.691406 1509.449219 C 2787.691406 1509.449219 2774.101562 1472.089844 2784.289062 1256.449219 C 2794.480469 1040.800781 2532.988281 1028.910156 2364.878906 986.460938 C 2196.78125 944.011719 2184.890625 774.210938 2184.890625 774.210938 C 2184.890625 774.210938 2125.46875 806.46875 1972.640625 954.199219 C 1819.828125 1101.929688 1729.828125 1465.300781 1813.03125 1738.679688 C 1896.238281 2012.058594 2283.378906 2112.238281 2283.378906 2112.238281 L 2285.078125 2292.230469 C 2285.078125 2292.230469 2040.570312 2299.019531 1847 2356.761719 C 1653.421875 2414.488281 1505.710938 2580.894531 1505.710938 2580.894531 C 1505.710938 2580.894531 1439.488281 2545.238281 1431 2495.992188 C 1422.511719 2446.75 1449.679688 2412.785156 1449.679688 2412.785156 C 1449.679688 2412.785156 1252.710938 2382.226562 1257.800781 2210.71875 C 1262.898438 2039.21875 1380.058594 2023.941406 1380.058594 2023.941406 C 1380.058594 2023.941406 1310.441406 1894.898438 1376.660156 1803.210938 C 1442.878906 1711.511719 1512.5 1699.628906 1512.5 1699.628906 C 1512.5 1699.628906 1386.851562 1631.710938 1414.011719 1507.761719 C 1441.179688 1383.800781 1605.890625 1348.140625 1605.890625 1348.140625 C 1605.890625 1348.140625 1544.761719 893.070312 1819.839844 692.710938 C 2094.910156 492.339844 2358.109375 578.941406 2358.109375 578.941406 C 2358.109375 578.941406 2770.71875 429.511719 3023.71875 716.46875 C 3276.730469 1003.441406 3198.621094 1533.21875 3198.621094 1533.21875 C 3198.621094 1533.21875 3448.230469 1478.878906 3494.070312 1619.820312 C 3539.921875 1760.761719 3448.230469 1835.46875 3448.230469 1835.46875 C 3448.230469 1835.46875 3597.648438 1753.960938 3689.339844 1913.570312 C 3706.070312 1942.691406 3714.058594 1971.121094 3716 1998.160156 "/>
</svg>
